# xmcd
#
# Track frame offsets:
#	150
#	9916
#	19728
#	28349
#	37904
#	48025
#	57076
#	66082
#	76035
#	86940
#	98084
#	108308
#	117701
#	126168
#	136630
#	146792
#	157644
#	169502
#	179617
#	192022
#	202334
#	211591
#	219904
#	233309
#	243815
#
# Disc length: 3416 seconds
# Revision: 2
# Processed by: cddbd v1.5.2PL0 Copyright (c) Steve Scherf et al.
# Submitted via: dBpowerAMP V12.0
#
DISCID=3e0d5619
DTITLE=Various Artist - Dizzy Miss Lizzy: The Specialty Story  [CD2)
DYEAR=2013
DGENRE=Rhythm and Blues
TTITLE0=Little Richard - Long Tall Sally
TTITLE1=Wynona Carr - Touch And go
TTITLE2=Larry Williams - Little School Girl
TTITLE3=Ben Zeppa and The Zephyrs - Baby I Need You
TTITLE4=Bobby Mandolph - Malinda
TTITLE5=Chuck Higgins - Dye Ooh Mambo
TTITLE6=Sam Cooke - I Need You Now
TTITLE7=Marvin and Johnny - Flip
TTITLE8=Lloyd Price - Baby Please Come Home
TTITLE9=Chenier Clifton - Think It Over
TTITLE10=Don and Dewey - Just A Little Lovin'
TTITLE11=Dukes - Ooh Bop She Bop
TTITLE12=Edgar Blanchard - Stepping High
TTITLE13=Jesse Belvin - Love Love Of My Life
TTITLE14=Guitar Slim - Stand By Me
TTITLE15=Art Neville - Arabian Love Call
TTITLE16=Harper Brinson Band - Harper's Return
TTITLE17=Holidays - Irene
TTITLE18=Liggins Joe and The Honeydrippers - Whiskey Woman and Loaded Dice
TTITLE19=Little Richard - Keep A Knockin'
TTITLE20=Pentagons - It's Spring Again
TTITLE21=Johnny Two Voice - Superman
TTITLE22=Percy Mayfield - You Were Lyin' To Me
TTITLE23=Roy Montrell - That Mellow Saxophone
TTITLE24=Tony Allen and The Champs - I
EXTD=
EXTT0=
EXTT1=
EXTT2=
EXTT3=
EXTT4=
EXTT5=
EXTT6=
EXTT7=
EXTT8=
EXTT9=
EXTT10=
EXTT11=
EXTT12=
EXTT13=
EXTT14=
EXTT15=
EXTT16=
EXTT17=
EXTT18=
EXTT19=
EXTT20=
EXTT21=
EXTT22=
EXTT23=
EXTT24=
PLAYORDER=
